<svg xmlns="http://www.w3.org/2000/svg" width="500" height="500" viewBox="0 0 500 500" role="img" aria-label="QR code style wallet placeholder">
  <rect width="500" height="500" fill="#ffffff"/>
  <g fill="#000000">
    <rect x="30" y="30" width="140" height="140"/>
    <rect x="50" y="50" width="100" height="100" fill="#fff"/>
    <rect x="70" y="70" width="60" height="60"/>

    <rect x="330" y="30" width="140" height="140"/>
    <rect x="350" y="50" width="100" height="100" fill="#fff"/>
    <rect x="370" y="70" width="60" height="60"/>

    <rect x="30" y="330" width="140" height="140"/>
    <rect x="50" y="350" width="100" height="100" fill="#fff"/>
    <rect x="70" y="370" width="60" height="60"/>

    <rect x="220" y="220" width="20" height="20"/>
    <rect x="260" y="220" width="20" height="20"/>
    <rect x="300" y="220" width="20" height="20"/>
    <rect x="220" y="260" width="20" height="20"/>
    <rect x="260" y="260" width="20" height="20"/>
    <rect x="300" y="260" width="20" height="20"/>
    <rect x="220" y="300" width="20" height="20"/>
    <rect x="260" y="300" width="20" height="20"/>
    <rect x="300" y="300" width="20" height="20"/>
  </g>
</svg>
